<svg width="67" height="64" viewBox="0 0 67 64" fill="none" xmlns="http://www.w3.org/2000/svg">
    <rect width="67" height="64" rx="16" fill="#9333ea"/>
    
    <path fill="white" fill-rule="evenodd" clip-rule="evenodd" d="M33.5 13C29.3579 13 26 16.3579 26 20.5C26 24.6421 29.3579 28 33.5 28C37.6421 28 41 24.6421 41 20.5C41 16.3579 37.6421 13 33.5 13ZM33.5 17C31.567 17 30 18.567 30 20.5C30 22.433 31.567 24 33.5 24C35.433 24 37 22.433 37 20.5C37 18.567 35.433 17 33.5 17ZM15.5 41C15.5 37.5 18.5 34.5 24 33C29.5 31.5 33.5 34 33.5 34C33.5 34 37.5 31.5 43 33C48.5 34.5 51.5 37.5 51.5 41C51.5 46.5 45.5 51 33.5 51C21.5 51 15.5 46.5 15.5 41Z"/>
</svg>
